<?xml version="1.0" encoding="UTF-8" standalone="no"?>
<svg width="58px" height="88px" viewBox="0 0 58 88" version="1.1" xmlns="http://www.w3.org/2000/svg" xmlns:xlink="http://www.w3.org/1999/xlink" xmlns:sketch="http://www.bohemiancoding.com/sketch/ns">
    <title>Slice 1</title>
    <description>Created with Sketch (http://www.bohemiancoding.com/sketch)</description>
    <defs></defs>
    <g id="Page-1" stroke="none" stroke-width="1" fill="none" fill-rule="evenodd" sketch:type="MSPage">
        <g id="icon_5843" sketch:type="MSLayerGroup" fill="#FFA500">
            <path d="M8.814,51.874 L8.814,62.44 C8.814,62.44 17.959,67.195 29.135,67.195 C40.311,67.195 49.455,62.44 49.455,62.44 L49.455,51.874 C49.455,51.874 39.708,56.629 29.135,56.629 C18.562,56.629 8.814,51.874 8.814,51.874 L8.814,51.874 L8.814,51.874 L8.814,51.874 Z M8.814,51.874" id="Shape" sketch:type="MSShapeGroup"></path>
            <path d="M49.456,65.24 C49.456,65.24 40.209,69.995 29.136,69.995 C18.063,69.995 8.814,65.24 8.814,65.24 C8.814,65.24 6.896,68.142 6.896,74.734 C6.896,75.037 6.933,75.33 6.991,75.616 C6.936,75.805 6.896,76.008 6.896,76.238 C6.896,78.787 8.766,81.986 8.766,81.986 C8.766,81.986 9.073,81.476 9.436,80.697 C9.54,80.92 9.617,81.062 9.617,81.062 C9.617,81.062 9.916,80.525 10.165,79.819 C10.405,80.838 10.919,81.783 10.919,81.783 C10.919,81.783 10.995,81.646 11.099,81.433 C11.617,82.767 12.204,83.775 12.204,83.775 C12.204,83.775 12.605,83.103 13.037,82.125 C13.272,82.754 13.526,83.225 13.526,83.225 C13.526,83.225 13.825,82.69 14.073,81.985 C14.317,83.003 14.831,83.946 14.831,83.946 L14.833,83.942 C15.255,84.903 15.64,85.565 15.64,85.565 C15.64,85.565 15.85,85.213 16.128,84.655 C16.128,84.657 16.134,84.667 16.134,84.667 C16.134,84.667 16.431,84.134 16.681,83.431 C16.925,84.447 17.437,85.388 17.437,85.388 C17.437,85.388 17.778,84.784 18.036,84.007 C18.582,85.497 19.263,86.667 19.263,86.667 C19.263,86.667 19.615,86.083 20.014,85.204 C20.184,85.593 20.325,85.854 20.325,85.854 C20.325,85.854 20.759,85.077 21.018,84.151 C21.268,85.155 21.77,86.073 21.77,86.073 C21.77,86.073 21.934,85.778 22.12,85.344 C22.583,86.436 23.035,87.211 23.035,87.211 C23.035,87.211 23.563,86.33 24.062,85.106 C24.323,85.889 24.664,86.512 24.664,86.512 C24.664,86.512 25.096,85.739 25.357,84.815 C25.609,85.819 26.11,86.733 26.11,86.733 C26.11,86.733 26.146,86.667 26.195,86.573 C26.534,87.292 26.805,87.757 26.805,87.757 C26.805,87.757 27.067,87.321 27.397,86.636 C27.491,86.831 27.557,86.954 27.557,86.954 C27.557,86.954 28,86.157 28.262,85.214 C28.518,86.202 29.004,87.091 29.004,87.091 C29.004,87.091 29.312,86.538 29.566,85.812 C30.063,87.027 30.58,87.914 30.58,87.914 C30.58,87.914 31.067,87.103 31.55,85.953 C31.738,86.394 31.902,86.699 31.902,86.699 C31.902,86.699 32.404,85.81 32.657,84.795 C32.922,85.713 33.35,86.504 33.35,86.504 C33.35,86.504 33.466,86.295 33.614,85.973 C34.011,86.852 34.356,87.444 34.356,87.444 C34.356,87.444 35.08,86.241 35.638,84.684 C35.902,85.479 36.247,86.112 36.247,86.112 C36.247,86.112 36.676,85.342 36.941,84.421 C37.485,85.862 38.131,86.972 38.131,86.972 C38.131,86.972 38.526,86.314 38.957,85.345 C39.064,85.572 39.144,85.72 39.144,85.72 C39.144,85.72 39.643,84.835 39.899,83.82 C40.167,84.738 40.592,85.525 40.592,85.525 C40.592,85.525 40.79,85.17 41,84.658 C41.463,85.738 41.906,86.5 41.906,86.5 C41.906,86.5 42.552,85.428 43.096,83.994 C43.21,84.238 43.296,84.4 43.296,84.4 C43.296,84.4 43.809,83.492 44.064,82.457 C44.32,83.176 44.621,83.732 44.621,83.732 C44.621,83.732 44.655,83.67 44.701,83.582 C45.097,84.453 45.438,85.041 45.438,85.041 C45.438,85.041 46.355,83.52 46.927,81.676 C47.111,82.106 47.269,82.399 47.269,82.399 C47.269,82.399 47.577,81.848 47.835,81.12 C48.356,82.431 48.925,83.403 48.925,83.403 C48.925,83.403 50.87,80.174 50.87,77.42 C50.87,77.218 50.844,77.036 50.805,76.864 C51.172,76.204 51.374,75.497 51.374,74.739 C51.374,69.725 49.456,65.24 49.456,65.24 L49.456,65.24 L49.456,65.24 L49.456,65.24 Z M49.456,65.24" id="Shape" sketch:type="MSShapeGroup"></path>
            <g id="Group" sketch:type="MSShapeGroup">
                <path d="M0.462,14.939 C0.462,16.656 1.681,18.759 2.353,19.79 C2.464,19.624 2.588,19.43 2.719,19.215 L3.191,18.436 L3.453,18.871 C3.524,18.738 3.598,18.591 3.668,18.436 L4.271,17.109 L4.696,18.504 C4.815,18.898 4.997,19.286 5.165,19.603 L5.46,19.122 L5.903,20 C6.224,20.637 6.567,21.199 6.829,21.599 C6.997,21.346 7.198,21.027 7.407,20.664 L7.93,19.749 L8.379,20.702 C8.436,20.822 8.494,20.937 8.551,21.043 C8.619,20.914 8.692,20.772 8.759,20.624 L9.36,19.306 L9.784,20.691 C9.911,21.102 10.1,21.503 10.275,21.825 L10.29,21.804 L10.757,22.512 C10.954,22.857 11.146,23.162 11.306,23.407 C11.349,23.343 11.393,23.275 11.439,23.203 L11.882,22.515 L11.914,22.561 C11.993,22.416 12.077,22.254 12.155,22.082 L12.755,20.771 L13.18,22.148 C13.3,22.537 13.478,22.919 13.646,23.232 C13.744,23.05 13.845,22.845 13.936,22.627 L14.41,21.492 L14.939,22.603 C15.304,23.372 15.719,24.055 16.022,24.52 C16.162,24.311 16.324,24.057 16.494,23.77 L16.984,22.941 L17.402,23.701 C17.535,23.452 17.675,23.159 17.787,22.851 L18.336,21.334 L18.826,22.871 C18.949,23.252 19.123,23.623 19.287,23.928 L19.764,23.05 L20.248,23.93 C20.494,24.377 20.736,24.769 20.934,25.07 C21.168,24.718 21.467,24.24 21.758,23.69 L22.301,22.663 L22.75,23.735 C22.846,23.963 22.951,24.178 23.053,24.368 C23.182,24.128 23.316,23.847 23.427,23.552 L23.576,23.153 L24.351,23.235 L24.49,23.575 C24.617,23.956 24.793,24.325 24.955,24.624 L25.094,24.413 L25.547,25.151 C25.653,25.325 25.754,25.483 25.846,25.622 C25.928,25.499 26.018,25.359 26.114,25.206 L26.585,24.452 L26.815,24.828 C26.956,24.567 27.104,24.256 27.221,23.929 L27.756,22.429 L28.26,23.94 C28.381,24.306 28.551,24.661 28.708,24.956 C28.792,24.8 28.879,24.627 28.961,24.443 L29.418,23.409 L29.948,24.408 C30.236,24.952 30.531,25.429 30.761,25.78 C30.974,25.46 31.243,25.034 31.509,24.545 L31.995,23.652 L32.475,24.548 C32.477,24.551 32.479,24.554 32.48,24.558 C32.618,24.303 32.762,24.001 32.877,23.684 L33,23.348 L33.755,23.3 L34.04,23.659 C34.144,23.913 34.261,24.154 34.372,24.365 L34.733,23.742 L35.21,24.553 C35.38,24.84 35.54,25.096 35.679,25.307 C35.999,24.827 36.441,24.108 36.822,23.292 L37.347,22.166 L37.826,23.312 C37.926,23.547 38.035,23.77 38.14,23.965 C38.274,23.714 38.416,23.418 38.531,23.106 L38.64,22.809 L39.357,22.684 L39.574,23.047 C39.928,23.761 40.312,24.392 40.597,24.829 C40.763,24.582 40.958,24.273 41.163,23.921 L41.632,23.112 L41.911,23.581 C42.071,23.285 42.243,22.924 42.366,22.548 L42.456,22.272 L42.898,22.168 L43.278,22.168 L43.413,22.523 C43.528,22.831 43.669,23.124 43.803,23.373 C43.825,23.332 43.847,23.29 43.87,23.248 L44.341,22.341 L44.837,23.234 C45.081,23.673 45.321,24.058 45.515,24.353 C45.802,23.924 46.187,23.303 46.538,22.592 L46.987,21.688 L47.319,22.247 C47.489,21.938 47.671,21.557 47.796,21.161 L48.228,19.805 L48.82,21.099 C48.9,21.276 48.986,21.443 49.067,21.593 L49.207,21.382 L49.654,22.139 C49.82,22.421 49.978,22.671 50.115,22.879 C50.51,22.29 51.089,21.339 51.517,20.286 L51.955,19.21 L52.5,20.214 C52.584,20.057 52.673,19.882 52.756,19.697 L53.221,18.655 L53.745,19.667 C54.066,20.287 54.402,20.831 54.656,21.221 C55.355,20.178 56.636,18.005 56.636,16.131 L57.49,16.131 C57.445,16.026 57.42,15.916 57.365,15.813 C57.595,15.396 57.732,14.908 57.732,14.341 C57.732,9.934 53.721,4.768 53.721,4.768 C53.721,4.768 52.347,6.599 51.206,8.965 C50.677,7.317 49.626,5.873 49.626,5.873 C49.626,5.873 49.265,6.387 48.858,7.142 C47.682,4.167 45.767,1.697 45.767,1.697 C45.767,1.697 44.948,2.788 44.053,4.368 C43.858,4.058 43.723,3.871 43.723,3.871 C43.723,3.871 42.763,5.233 42.219,6.78 C41.715,5.077 40.605,3.547 40.605,3.547 C40.605,3.547 40.184,4.147 39.741,4.999 C38.614,2.659 37.245,0.888 37.245,0.888 C37.245,0.888 36.194,2.287 35.175,4.212 C34.757,3.431 34.371,2.899 34.371,2.899 C34.371,2.899 33.404,4.272 32.866,5.822 C32.372,4.117 31.253,2.575 31.253,2.575 C31.253,2.575 31.036,2.885 30.751,3.37 C29.748,1.5 28.722,0.175 28.722,0.175 C28.722,0.175 27.251,2.133 26.107,4.605 C25.6,3.528 25.022,2.733 25.022,2.733 C25.022,2.733 23.902,4.324 23.412,6.009 C22.884,4.447 21.909,3.103 21.909,3.103 C21.909,3.103 21.83,3.216 21.709,3.406 C20.904,2.048 20.208,1.146 20.208,1.146 C20.208,1.146 18.293,3.696 17.145,6.644 C16.612,5.125 15.68,3.84 15.68,3.84 C15.68,3.84 14.771,5.132 14.236,6.616 C13.146,4.399 11.863,2.741 11.863,2.741 C11.863,2.741 10.843,4.099 9.849,5.972 C9.824,5.934 9.804,5.908 9.804,5.908 C9.804,5.908 8.601,7.614 8.153,9.353 C7.623,8.113 6.922,7.148 6.922,7.148 C6.922,7.148 6.342,7.971 5.838,9.055 C4.92,7.41 4.04,6.271 4.04,6.271 C4.04,6.271 0.518,10.96 0.217,14.938 L0.462,14.938 L0.462,14.938 L0.462,14.939 L0.462,14.939 Z M0.462,14.939" id="Shape"></path>
                <path d="M57.696,16.753 C57.386,19.518 55.184,22.386 55.085,22.515 L54.644,23.084 L54.21,22.508 C54.189,22.477 53.771,21.917 53.271,21.076 C53.089,21.382 52.951,21.575 52.941,21.589 L52.488,22.22 L52.097,21.658 C51.386,23.076 50.584,24.118 50.542,24.171 L50.101,24.74 L49.669,24.163 C49.657,24.146 49.448,23.867 49.153,23.413 L49.042,23.571 L48.593,22.928 C48.585,22.917 48.501,22.794 48.378,22.594 C48.077,23.178 47.783,23.585 47.765,23.611 L47.308,24.239 L47.08,23.91 C46.501,24.924 45.972,25.611 45.944,25.647 L45.503,26.216 L45.069,25.64 C45.051,25.617 44.751,25.214 44.356,24.581 C44.29,24.683 44.247,24.743 44.243,24.749 L43.788,25.377 L43.347,24.741 C43.333,24.721 43.143,24.448 42.913,24.035 C42.634,24.563 42.374,24.925 42.355,24.948 L41.901,25.577 L41.654,25.221 C41.301,25.767 41.04,26.105 41.026,26.124 L40.585,26.693 L40.151,26.116 C40.126,26.082 39.645,25.438 39.102,24.494 C38.836,24.987 38.598,25.32 38.582,25.342 L38.133,25.972 L37.688,25.338 C37.676,25.321 37.516,25.093 37.312,24.739 C36.709,25.817 36.139,26.561 36.108,26.6 L35.667,27.172 L35.233,26.594 C35.221,26.576 35.016,26.301 34.725,25.854 L34.35,26.366 L33.911,25.731 C33.897,25.711 33.708,25.436 33.479,25.022 C33.2,25.551 32.939,25.915 32.922,25.938 L32.469,26.568 L32.026,25.93 C32.026,25.93 32.016,25.916 31.999,25.889 C31.56,26.598 31.208,27.053 31.188,27.078 L30.747,27.646 L30.314,27.07 C30.293,27.043 29.932,26.558 29.483,25.816 C29.299,26.125 29.159,26.32 29.149,26.334 L28.698,26.961 L28.255,26.33 C28.237,26.306 27.993,25.957 27.726,25.452 C27.486,25.886 27.279,26.174 27.265,26.193 L26.808,26.83 L26.579,26.496 C26.398,26.756 26.28,26.908 26.272,26.919 L25.831,27.488 L25.398,26.912 C25.398,26.912 25.264,26.734 25.059,26.429 L24.934,26.606 L24.485,25.967 C24.467,25.944 24.212,25.575 23.934,25.047 C23.704,25.458 23.51,25.729 23.496,25.748 L23.045,26.379 L22.6,25.744 C22.588,25.727 22.418,25.485 22.207,25.115 C21.752,25.858 21.383,26.34 21.361,26.367 L20.92,26.939 L20.486,26.361 C20.468,26.338 20.157,25.92 19.754,25.267 C19.738,25.289 19.73,25.302 19.73,25.302 L19.282,25.934 L18.835,25.3 C18.817,25.276 18.56,24.907 18.282,24.38 C18.052,24.79 17.86,25.062 17.845,25.081 L17.392,25.712 L16.959,25.092 C16.668,25.531 16.463,25.8 16.451,25.816 L16.01,26.388 L15.576,25.81 C15.547,25.772 15.019,25.064 14.447,24.044 C14.25,24.38 14.095,24.595 14.084,24.611 L13.633,25.236 L13.19,24.605 C13.172,24.578 12.883,24.164 12.588,23.581 C12.475,23.761 12.396,23.87 12.389,23.88 L11.934,24.515 L11.905,24.47 C11.798,24.619 11.734,24.701 11.734,24.701 L11.294,25.27 L10.86,24.695 C10.842,24.671 10.469,24.172 10.01,23.409 L9.795,23.147 C9.776,23.12 9.486,22.705 9.191,22.122 C9.078,22.303 9,22.412 8.992,22.422 L8.539,23.054 L8.096,22.415 C8.088,22.404 7.991,22.263 7.854,22.037 C7.518,22.553 7.273,22.873 7.258,22.892 L6.817,23.463 L6.383,22.886 C6.36,22.853 5.89,22.226 5.36,21.303 L5.151,21.599 L4.702,20.96 C4.682,20.933 4.393,20.518 4.1,19.936 C3.987,20.117 3.909,20.226 3.901,20.236 L3.444,20.874 L3.192,20.506 C2.954,20.858 2.792,21.069 2.782,21.082 L2.342,21.652 L1.909,21.077 C1.854,21.005 1.173,20.087 0.527,18.841 C1.124,30.668 8.766,49.07 8.766,49.07 C8.766,49.07 18.368,53.825 28.972,53.825 C39.576,53.825 49.408,49.07 49.408,49.07 C49.408,49.07 57.784,28.832 57.784,17.431 C57.784,17.202 57.744,16.977 57.696,16.753 C57.696,16.753 57.744,16.977 57.696,16.753 L57.696,16.753 L57.696,16.753 Z M57.696,16.753" id="Shape"></path>
            </g>
        </g>
    </g>
</svg>